<svg xmlns="http://www.w3.org/2000/svg" xmlns:xlink="http://www.w3.org/1999/xlink" width="74.99970245361328" height="17.59366491161154" viewBox="-612.5 -260.55555555555554 74.99970245361328 17.59366491161154"><g><path d="M0 0.5L8.857142857142858 0.5" transform="matrix(1,0,0,1,-582.6700000762975,-244.211890643944)" fill="none" stroke="#ffffff" stroke-width="1.5" stroke-linecap="round"/><path d="M13.71330070495605 15.093313860475712C12.44700050354004 13.74875341824203 11.81430053710938 12.100088406152357 11.81430053710938 10.149233012110399C11.81430053710938 8.19837660473445 12.44700050354004 6.550668179929632 13.71330070495605 5.205151657078089C14.97870063781738 3.8605909615109018 16.52400016784668 3.1873544064427057 18.34830093383789 3.1873544064427057C20.17170143127441 3.1873544064427057 21.71969985961914 3.8605909615109018 22.99230003356934 5.205151657078089C24.26399993896484 6.550668179929632 24.90030097961426 8.19837660473445 24.90030097961426 10.149233012110399C24.90030097961426 12.100088406152357 24.26399993896484 13.751622166762576 22.99230003356934 15.10287669332221C21.71969985961914 16.441699638514812 20.17170143127441 17.111111111111107 18.34830093383789 17.111111111111107C16.52400016784668 17.111111111111107 14.97870063781738 16.438830889994254 13.71330070495605 15.093313860475712zM68.21369934082031 16.84334672473938L68.21369934082031 11.621937643821864L63.91170120239258 3.4551190461479235L66.7197036743164 3.4551190461479235L69.45570373535156 9.03992210856957L72.19170379638672 3.4551190461479235L74.99970245361328 3.4551190461479235L70.67970275878906 11.621937643821864L70.67970275878906 16.84334672473938L68.21369934082031 16.84334672473938zM56.4723014831543 16.84334672473938L56.4723014831543 3.4551190461479235L58.95630264282227 3.4551190461479235L58.95630264282227 14.318709199900027L63.76230239868164 14.318709199900027L63.76230239868164 16.84334672473938L56.4723014831543 16.84334672473938zM50.88600158691406 16.84334672473938L46.38600158691406 10.57000576402796L46.38600158691406 16.84334672473938L43.90200042724609 16.84334672473938L43.90200042724609 3.4551190461479235L46.38600158691406 3.4551190461479235L46.38600158691406 9.365065518688217L50.70600128173828 3.4551190461479235L53.56800079345703 3.4551190461479235L48.90600204467773 9.957972301844604L53.74800109863281 16.84334672473938L50.88600158691406 16.84334672473938zM0 16.84334672473938L0 3.4551190461479235L4.967999935150146 3.4551190461479235C6.048000335693359 3.4551190461479235 6.957000255584717 3.8089507014725537 7.695000171661377 4.516614012121812C8.433000564575195 5.224277322771074 8.802000045776367 6.127026679491523 8.802000045776367 7.2229484010464775C8.802000045776367 8.332258797920312 8.406000137329102 9.225445321794268 7.61400032043457 9.900594291431666C8.718299865722656 10.576699848353899 9.270000457763672 11.597073467753793 9.270000457763672 12.960760589014447C9.270000457763672 14.095891242574199 8.892000198364258 15.026373017216294 8.136000633239746 15.753162500225526C7.380000114440918 16.479951983234738 6.450300216674805 16.84334672473938 5.346000194549561 16.84334672473938L0 16.84334672473938zM29.46870040893555 11.905958947366011C28.20330047607422 10.560442931181472 27.56970024108887 8.91273450637665 27.56970024108887 6.9618780990007005C27.56970024108887 5.011022198291746 28.20330047607422 3.3633140268204214 29.46870040893555 2.0177971239686348C30.73500061035156 0.6722802844502199 32.28030014038086 0 34.10370254516602 0C35.92800140380859 0 37.47600173950195 0.6722802844502199 38.74769973754883 2.0177971239686348C40.02030181884766 3.3633140268204214 40.65570068359375 5.011022198291746 40.65570068359375 6.9618780990007005C40.65570068359375 8.91273450637665 40.02030181884766 10.564267253652865 38.74769973754883 11.915522793546495C37.47600173950195 13.254344725405108 35.92800140380859 13.9237561980014 34.10370254516602 13.9237561980014C32.28030014038086 13.9237561980014 30.73500061035156 13.251475976884555 29.46870040893555 11.905958947366011z" transform="matrix(1,0,0,1,-612.5,-260.55555555555554)" fill="#ffffff" fill-rule="evenodd"/></g></svg>