<svg xmlns="http://www.w3.org/2000/svg" xmlns:xlink="http://www.w3.org/1999/xlink" width="25" height="25" viewBox="320 44 25 25"><g transform="matrix(1,0,0,1,320,44)"><rect x="0" y="0" width="25" height="25" fill="none"/><g transform="matrix(1,0,0,1,1,3)"><g transform="matrix(1,0,0,1,0.5789473652839661,0.34736841917037964)"><path d="M 0 1.563157916069031 C 0 0.6995131373405457 0.6995131373405457 0 1.563157916069031 0 C 2.426802635192871 0 3.126315832138062 0.6995131373405457 3.126315832138062 1.563157916069031 C 3.126315832138062 2.426802635192871 2.426802635192871 3.126315832138062 1.563157916069031 3.126315832138062 C 0.6995131373405457 3.126315832138062 0 2.426802635192871 0 1.563157916069031 L 0 1.563157916069031 Z" transform="matrix(1,0,0,1,13.547368049621582,14.589473724365234)" fill="none" stroke="#ffffff" stroke-width="2" stroke-linecap="round" stroke-linejoin="round"/><path d="M 0 1.563157916069031 C 0 0.6995131373405457 0.6995131373405457 0 1.563157916069031 0 C 2.426802635192871 0 3.126315832138062 0.6995131373405457 3.126315832138062 1.563157916069031 C 3.126315832138062 2.426802635192871 2.426802635192871 3.126315832138062 1.563157916069031 3.126315832138062 C 0.6995131373405457 3.126315832138062 0 2.426802635192871 0 1.563157916069031 L 0 1.563157916069031 Z" transform="matrix(1,0,0,1,5.210526466369629,14.589473724365234)" fill="none" stroke="#ffffff" stroke-width="2" stroke-linecap="round" stroke-linejoin="round"/><path d="M 0 0 L 2.657368421554565 0 L 4.887786388397217 11.36895179748535 C 5.135807514190674 12.63608169555664 6.226214408874512 13.54736804962158 7.492893218994141 13.54736804962158 L 17.71578979492188 13.54736804962158" fill="none" stroke="#ffffff" stroke-width="2" stroke-linecap="round" stroke-linejoin="round"/><path d="M 0 0 L 16.67368507385254 0 L 15.95023155212402 5.697189331054688 C 15.83444213867188 6.609943389892578 15.04614734649658 7.294736862182617 14.11149501800537 7.294736862182617 L 1.389473676681519 7.294736862182617" transform="matrix(1,0,0,1,3.1263158321380615,2.0842106342315674)" fill="none" stroke="#ffffff" stroke-width="2" stroke-linecap="round" stroke-linejoin="round"/></g></g></g></svg>